<svg xmlns="http://www.w3.org/2000/svg" version="1.1" xmlns:xlink="http://www.w3.org/1999/xlink" width="1000" height="1000"><style>
    #light-icon {
      display: inline;
    }
    #dark-icon {
      display: none;
    }

    @media (prefers-color-scheme: dark) {
      #light-icon {
        display: none;
      }
      #dark-icon {
        display: inline;
      }
    }
  </style><g id="light-icon"><svg xmlns="http://www.w3.org/2000/svg" version="1.1" xmlns:xlink="http://www.w3.org/1999/xlink" width="1000" height="1000"><g><g transform="matrix(6.622516556291391,0,0,6.622516556291391,0,3.311258278145715)"><svg xmlns="http://www.w3.org/2000/svg" version="1.1" xmlns:xlink="http://www.w3.org/1999/xlink" width="151" height="150"><svg width="151" height="150" viewBox="0 0 151 150" fill="none" xmlns="http://www.w3.org/2000/svg">
<path fill-rule="evenodd" clip-rule="evenodd" d="M71.78 8.49002C72.913 7.84284 74.1952 7.50244 75.5 7.50244C76.8048 7.50244 78.0871 7.84284 79.22 8.49002L92.345 15.99C93.2246 16.4654 94.0003 17.1119 94.6264 17.8914C95.2526 18.6709 95.7165 19.5678 95.991 20.5292C96.2655 21.4907 96.3449 22.4973 96.2247 23.4899C96.1045 24.4825 95.787 25.441 95.2909 26.3091C94.7949 27.1772 94.1302 27.9374 93.3361 28.5449C92.542 29.1524 91.6344 29.595 90.6667 29.8467C89.6991 30.0983 88.6909 30.1539 87.7014 30.0102C86.7119 29.8666 85.7612 29.5265 84.905 29.01L75.5 23.64L66.095 29.01C65.2389 29.5265 64.2881 29.8666 63.2987 30.0102C62.3092 30.1539 61.301 30.0983 60.3333 29.8467C59.3656 29.595 58.4581 29.1524 57.6639 28.5449C56.8698 27.9374 56.2052 27.1772 55.7091 26.3091C55.213 25.441 54.8956 24.4825 54.7753 23.4899C54.6551 22.4973 54.7346 21.4907 55.0091 20.5292C55.2835 19.5678 55.7475 18.6709 56.3736 17.8914C56.9997 17.1119 57.7754 16.4654 58.655 15.99L71.78 8.49002ZM42.635 33.78C43.6211 35.5067 43.8811 37.5543 43.3579 39.4726C42.8347 41.391 41.5712 43.023 39.845 44.01L38.12 45L39.845 45.99C40.7246 46.4654 41.5003 47.1119 42.1265 47.8914C42.7526 48.6709 43.2165 49.5678 43.491 50.5292C43.7655 51.4907 43.8449 52.4973 43.7247 53.4899C43.6045 54.4825 43.287 55.441 42.791 56.3091C42.2949 57.1772 41.6303 57.9374 40.8361 58.5449C40.042 59.1524 39.1344 59.595 38.1668 59.8467C37.1991 60.0983 36.1909 60.1539 35.2014 60.0102C34.2119 59.8666 33.2612 59.5265 32.405 59.01L30.5 57.9225V60C30.5 61.9891 29.7099 63.8968 28.3033 65.3033C26.8968 66.7098 24.9892 67.5 23 67.5C21.0109 67.5 19.1033 66.7098 17.6967 65.3033C16.2902 63.8968 15.5 61.9891 15.5 60V45C15.4958 43.6527 15.8561 42.3294 16.5427 41.1701C17.2292 40.0109 18.2166 39.0589 19.4 38.415L32.405 30.99C34.1317 30.004 36.1793 29.744 38.0976 30.2672C40.016 30.7903 41.648 32.0539 42.635 33.78ZM108.365 33.78C109.352 32.0539 110.984 30.7903 112.902 30.2672C114.821 29.744 116.868 30.004 118.595 30.99L131.593 38.415C132.774 39.0617 133.76 40.0141 134.448 41.1725C135.135 42.331 135.499 43.653 135.5 45V60C135.5 61.9891 134.71 63.8968 133.303 65.3033C131.897 66.7098 129.989 67.5 128 67.5C126.011 67.5 124.103 66.7098 122.697 65.3033C121.29 63.8968 120.5 61.9891 120.5 60V57.9225L118.595 59.01C117.739 59.5265 116.788 59.8666 115.799 60.0102C114.809 60.1539 113.801 60.0983 112.833 59.8467C111.866 59.595 110.958 59.1524 110.164 58.5449C109.37 57.9374 108.705 57.1772 108.209 56.3091C107.713 55.441 107.396 54.4825 107.275 53.4899C107.155 52.4973 107.235 51.4907 107.509 50.5292C107.784 49.5678 108.247 48.6709 108.874 47.8914C109.5 47.1119 110.275 46.4654 111.155 45.99L112.88 45L111.155 44.01C109.429 43.023 108.165 41.391 107.642 39.4726C107.119 37.5543 107.379 35.5067 108.365 33.78ZM55.865 63.78C56.852 62.0539 58.4841 60.7903 60.4024 60.2672C62.3208 59.744 64.3683 60.004 66.095 60.99L75.5 66.36L84.905 60.99C85.7612 60.4736 86.7119 60.1335 87.7014 59.9898C88.6909 59.8461 89.6991 59.9018 90.6667 60.1534C91.6344 60.405 92.542 60.8476 93.3361 61.4551C94.1302 62.0626 94.7949 62.8228 95.2909 63.6909C95.787 64.559 96.1045 65.5176 96.2247 66.5102C96.3449 67.5028 96.2655 68.5094 95.991 69.4708C95.7165 70.4323 95.2526 71.3291 94.6264 72.1087C94.0003 72.8882 93.2246 73.5346 92.345 74.01L83 79.35V90C83 91.9892 82.2099 93.8968 80.8033 95.3033C79.3968 96.7098 77.4892 97.5 75.5 97.5C73.5109 97.5 71.6033 96.7098 70.1967 95.3033C68.7902 93.8968 68 91.9892 68 90V79.35L58.655 74.01C56.9289 73.023 55.6654 71.391 55.1422 69.4726C54.619 67.5543 54.879 65.5067 55.865 63.78ZM23 82.5C24.9892 82.5 26.8968 83.2902 28.3033 84.6967C29.7099 86.1032 30.5 88.0109 30.5 90V100.65L39.845 105.99C40.7246 106.465 41.5003 107.112 42.1265 107.891C42.7526 108.671 43.2165 109.568 43.491 110.529C43.7655 111.491 43.8449 112.497 43.7247 113.49C43.6045 114.482 43.287 115.441 42.791 116.309C42.2949 117.177 41.6303 117.937 40.8361 118.545C40.042 119.152 39.1344 119.595 38.1668 119.847C37.1991 120.098 36.1909 120.154 35.2014 120.01C34.2119 119.867 33.2612 119.526 32.405 119.01L19.28 111.51C18.1321 110.854 17.1779 109.907 16.5141 108.764C15.8503 107.62 15.5005 106.322 15.5 105V90C15.5 88.0109 16.2902 86.1032 17.6967 84.6967C19.1033 83.2902 21.0109 82.5 23 82.5ZM128 82.5C129.989 82.5 131.897 83.2902 133.303 84.6967C134.71 86.1032 135.5 88.0109 135.5 90V105C135.5 106.322 135.15 107.62 134.486 108.764C133.822 109.907 132.868 110.854 131.72 111.51L118.595 119.01C117.739 119.526 116.788 119.867 115.799 120.01C114.809 120.154 113.801 120.098 112.833 119.847C111.866 119.595 110.958 119.152 110.164 118.545C109.37 117.937 108.705 117.177 108.209 116.309C107.713 115.441 107.396 114.482 107.275 113.49C107.155 112.497 107.235 111.491 107.509 110.529C107.784 109.568 108.247 108.671 108.874 107.891C109.5 107.112 110.275 106.465 111.155 105.99L120.5 100.65V90C120.5 88.0109 121.29 86.1032 122.697 84.6967C124.103 83.2902 126.011 82.5 128 82.5ZM55.865 123.78C56.852 122.054 58.4841 120.79 60.4024 120.267C62.3208 119.744 64.3683 120.004 66.095 120.99L68 122.078V120C68 118.011 68.7902 116.103 70.1967 114.697C71.6033 113.29 73.5109 112.5 75.5 112.5C77.4892 112.5 79.3968 113.29 80.8033 114.697C82.2099 116.103 83 118.011 83 120V122.078L84.905 120.99C85.7612 120.474 86.7119 120.133 87.7014 119.99C88.6909 119.846 89.6991 119.902 90.6667 120.153C91.6344 120.405 92.542 120.848 93.3361 121.455C94.1302 122.063 94.7949 122.823 95.2909 123.691C95.787 124.559 96.1045 125.518 96.2247 126.51C96.3449 127.503 96.2655 128.509 95.991 129.471C95.7165 130.432 95.2526 131.329 94.6264 132.109C94.0003 132.888 93.2246 133.535 92.345 134.01L79.3325 141.45C78.1743 142.143 76.8498 142.509 75.5 142.509C74.1502 142.509 72.8257 142.143 71.6675 141.45L58.655 134.01C56.9289 133.023 55.6654 131.391 55.1422 129.473C54.619 127.554 54.879 125.507 55.865 123.78Z" fill="black"></path>
</svg></svg></g></g></svg></g><g id="dark-icon"><svg xmlns="http://www.w3.org/2000/svg" version="1.1" xmlns:xlink="http://www.w3.org/1999/xlink" width="1000" height="1000"><g><g transform="matrix(6.622516556291391,0,0,6.622516556291391,0,3.311258278145715)"><svg xmlns="http://www.w3.org/2000/svg" version="1.1" xmlns:xlink="http://www.w3.org/1999/xlink" width="151" height="150"><svg width="151" height="150" viewBox="0 0 151 150" fill="none" xmlns="http://www.w3.org/2000/svg">
<path fill-rule="evenodd" clip-rule="evenodd" d="M71.78 8.49002C72.913 7.84284 74.1952 7.50244 75.5 7.50244C76.8048 7.50244 78.087 7.84284 79.22 8.49002L92.345 15.99C93.2246 16.4654 94.0003 17.1119 94.6264 17.8914C95.2525 18.6709 95.7165 19.5678 95.9909 20.5292C96.2654 21.4907 96.3449 22.4973 96.2247 23.4899C96.1044 24.4825 95.787 25.441 95.2909 26.3091C94.7948 27.1772 94.1302 27.9374 93.3361 28.5449C92.5419 29.1524 91.6344 29.595 90.6667 29.8467C89.699 30.0983 88.6908 30.1539 87.7013 30.0102C86.7119 29.8666 85.7611 29.5265 84.905 29.01L75.5 23.64L66.095 29.01C65.2388 29.5265 64.2881 29.8666 63.2986 30.0102C62.3091 30.1539 61.3009 30.0983 60.3333 29.8467C59.3656 29.595 58.458 29.1524 57.6639 28.5449C56.8698 27.9374 56.2051 27.1772 55.709 26.3091C55.213 25.441 54.8955 24.4825 54.7753 23.4899C54.6551 22.4973 54.7345 21.4907 55.009 20.5292C55.2835 19.5678 55.7474 18.6709 56.3736 17.8914C56.9997 17.1119 57.7754 16.4654 58.655 15.99L71.78 8.49002ZM42.635 33.78C43.621 35.5067 43.881 37.5543 43.3578 39.4726C42.8347 41.391 41.5711 43.023 39.845 44.01L38.12 45L39.845 45.99C40.7246 46.4654 41.5003 47.1119 42.1264 47.8914C42.7525 48.6709 43.2165 49.5678 43.4909 50.5292C43.7654 51.4907 43.8449 52.4973 43.7247 53.4899C43.6044 54.4825 43.287 55.441 42.7909 56.3091C42.2948 57.1772 41.6302 57.9374 40.8361 58.5449C40.0419 59.1524 39.1344 59.595 38.1667 59.8467C37.199 60.0983 36.1908 60.1539 35.2013 60.0102C34.2119 59.8666 33.2611 59.5265 32.405 59.01L30.5 57.9225V60C30.5 61.9891 29.7098 63.8968 28.3033 65.3033C26.8968 66.7098 24.9891 67.5 23 67.5C21.0109 67.5 19.1032 66.7098 17.6967 65.3033C16.2902 63.8968 15.5 61.9891 15.5 60V45C15.4958 43.6527 15.856 42.3294 16.5426 41.1701C17.2292 40.0109 18.2165 39.0589 19.4 38.415L32.405 30.99C34.1317 30.004 36.1792 29.744 38.0976 30.2672C40.0159 30.7903 41.648 32.0539 42.635 33.78ZM108.365 33.78C109.352 32.0539 110.984 30.7903 112.902 30.2672C114.821 29.744 116.868 30.004 118.595 30.99L131.592 38.415C132.774 39.0617 133.76 40.0141 134.448 41.1725C135.135 42.331 135.499 43.653 135.5 45V60C135.5 61.9891 134.71 63.8968 133.303 65.3033C131.897 66.7098 129.989 67.5 128 67.5C126.011 67.5 124.103 66.7098 122.697 65.3033C121.29 63.8968 120.5 61.9891 120.5 60V57.9225L118.595 59.01C117.739 59.5265 116.788 59.8666 115.799 60.0102C114.809 60.1539 113.801 60.0983 112.833 59.8467C111.866 59.595 110.958 59.1524 110.164 58.5449C109.37 57.9374 108.705 57.1772 108.209 56.3091C107.713 55.441 107.396 54.4825 107.275 53.4899C107.155 52.4973 107.235 51.4907 107.509 50.5292C107.783 49.5678 108.247 48.6709 108.874 47.8914C109.5 47.1119 110.275 46.4654 111.155 45.99L112.88 45L111.155 44.01C109.429 43.023 108.165 41.391 107.642 39.4726C107.119 37.5543 107.379 35.5067 108.365 33.78ZM55.865 63.78C56.852 62.0539 58.484 60.7903 60.4024 60.2672C62.3207 59.744 64.3683 60.004 66.095 60.99L75.5 66.36L84.905 60.99C85.7611 60.4736 86.7119 60.1335 87.7013 59.9898C88.6908 59.8461 89.699 59.9018 90.6667 60.1534C91.6344 60.405 92.5419 60.8476 93.3361 61.4551C94.1302 62.0626 94.7948 62.8228 95.2909 63.6909C95.787 64.559 96.1044 65.5176 96.2247 66.5102C96.3449 67.5028 96.2654 68.5094 95.9909 69.4708C95.7165 70.4323 95.2525 71.3291 94.6264 72.1087C94.0003 72.8882 93.2246 73.5346 92.345 74.01L83 79.35V90C83 91.9892 82.2098 93.8968 80.8033 95.3033C79.3967 96.7098 77.4891 97.5 75.5 97.5C73.5108 97.5 71.6032 96.7098 70.1967 95.3033C68.7901 93.8968 68 91.9892 68 90V79.35L58.655 74.01C56.9288 73.023 55.6653 71.391 55.1421 69.4726C54.6189 67.5543 54.8789 65.5067 55.865 63.78ZM23 82.5C24.9891 82.5 26.8968 83.2902 28.3033 84.6967C29.7098 86.1032 30.5 88.0109 30.5 90V100.65L39.845 105.99C40.7246 106.465 41.5003 107.112 42.1264 107.891C42.7525 108.671 43.2165 109.568 43.4909 110.529C43.7654 111.491 43.8449 112.497 43.7247 113.49C43.6044 114.482 43.287 115.441 42.7909 116.309C42.2948 117.177 41.6302 117.937 40.8361 118.545C40.0419 119.152 39.1344 119.595 38.1667 119.847C37.199 120.098 36.1908 120.154 35.2013 120.01C34.2119 119.867 33.2611 119.526 32.405 119.01L19.28 111.51C18.1321 110.854 17.1779 109.907 16.5141 108.764C15.8502 107.62 15.5004 106.322 15.5 105V90C15.5 88.0109 16.2902 86.1032 17.6967 84.6967C19.1032 83.2902 21.0109 82.5 23 82.5ZM128 82.5C129.989 82.5 131.897 83.2902 133.303 84.6967C134.71 86.1032 135.5 88.0109 135.5 90V105C135.5 106.322 135.15 107.62 134.486 108.764C133.822 109.907 132.868 110.854 131.72 111.51L118.595 119.01C117.739 119.526 116.788 119.867 115.799 120.01C114.809 120.154 113.801 120.098 112.833 119.847C111.866 119.595 110.958 119.152 110.164 118.545C109.37 117.937 108.705 117.177 108.209 116.309C107.713 115.441 107.396 114.482 107.275 113.49C107.155 112.497 107.235 111.491 107.509 110.529C107.783 109.568 108.247 108.671 108.874 107.891C109.5 107.112 110.275 106.465 111.155 105.99L120.5 100.65V90C120.5 88.0109 121.29 86.1032 122.697 84.6967C124.103 83.2902 126.011 82.5 128 82.5ZM55.865 123.78C56.852 122.054 58.484 120.79 60.4024 120.267C62.3207 119.744 64.3683 120.004 66.095 120.99L68 122.078V120C68 118.011 68.7901 116.103 70.1967 114.697C71.6032 113.29 73.5108 112.5 75.5 112.5C77.4891 112.5 79.3967 113.29 80.8033 114.697C82.2098 116.103 83 118.011 83 120V122.078L84.905 120.99C85.7611 120.474 86.7119 120.133 87.7013 119.99C88.6908 119.846 89.699 119.902 90.6667 120.153C91.6344 120.405 92.5419 120.848 93.3361 121.455C94.1302 122.063 94.7948 122.823 95.2909 123.691C95.787 124.559 96.1044 125.518 96.2247 126.51C96.3449 127.503 96.2654 128.509 95.9909 129.471C95.7165 130.432 95.2525 131.329 94.6264 132.109C94.0003 132.888 93.2246 133.535 92.345 134.01L79.3325 141.45C78.1743 142.143 76.8498 142.509 75.5 142.509C74.1502 142.509 72.8257 142.143 71.6675 141.45L58.655 134.01C56.9288 133.023 55.6653 131.391 55.1421 129.473C54.6189 127.554 54.8789 125.507 55.865 123.78Z" fill="white"></path>
</svg></svg></g></g></svg></g></svg>