<svg width="1200" height="1200" viewBox="0 0 1200 1200" fill="none" xmlns="http://www.w3.org/2000/svg">
<rect width="1200" height="1200" fill="white"/>
<path fill-rule="evenodd" clip-rule="evenodd" d="M580.291 245.28C586.294 241.828 593.087 240.013 600 240.013C606.913 240.013 613.706 241.828 619.709 245.28L689.245 285.28C693.905 287.815 698.015 291.263 701.332 295.421C704.649 299.578 707.107 304.362 708.561 309.489C710.016 314.617 710.436 319.986 709.8 325.279C709.163 330.573 707.481 335.685 704.852 340.315C702.225 344.945 698.703 348.999 694.496 352.239C690.289 355.479 685.48 357.84 680.353 359.182C675.227 360.524 669.885 360.821 664.643 360.054C659.401 359.288 654.364 357.475 649.828 354.72L600 326.08L550.172 354.72C545.636 357.475 540.599 359.288 535.357 360.054C530.115 360.821 524.773 360.524 519.647 359.182C514.52 357.84 509.712 355.479 505.504 352.239C501.297 348.999 497.776 344.945 495.147 340.315C492.519 335.685 490.838 330.573 490.2 325.279C489.563 319.986 489.985 314.617 491.439 309.489C492.893 304.362 495.351 299.578 498.668 295.421C501.985 291.263 506.095 287.815 510.755 285.28L580.291 245.28ZM425.881 380.16C431.105 389.369 432.483 400.29 429.711 410.52C426.939 420.752 420.245 429.456 411.099 434.72L401.96 440L411.099 445.28C415.759 447.815 419.869 451.263 423.187 455.421C426.504 459.578 428.961 464.362 430.416 469.489C431.87 474.617 432.291 479.985 431.654 485.279C431.017 490.573 429.335 495.685 426.707 500.315C424.079 504.945 420.558 508.999 416.35 512.239C412.143 515.479 407.334 517.84 402.208 519.182C397.081 520.524 391.74 520.821 386.497 520.054C381.255 519.288 376.218 517.475 371.682 514.72L361.589 508.92V520C361.589 530.608 357.403 540.783 349.951 548.284C342.499 555.785 332.393 560 321.854 560C311.316 560 301.209 555.785 293.757 548.284C286.306 540.783 282.119 530.608 282.119 520V440C282.097 432.814 284.006 425.757 287.643 419.574C291.28 413.391 296.512 408.314 302.781 404.88L371.682 365.28C380.83 360.021 391.678 358.635 401.841 361.425C412.005 364.215 420.652 370.954 425.881 380.16ZM774.119 380.16C779.348 370.954 787.995 364.215 798.156 361.425C808.323 358.635 819.168 360.021 828.318 365.28L897.181 404.88C903.438 408.329 908.662 413.408 912.307 419.587C915.947 425.765 917.875 432.816 917.881 440V520C917.881 530.608 913.695 540.783 906.241 548.284C898.792 555.785 888.683 560 878.146 560C867.608 560 857.499 555.785 850.05 548.284C842.596 540.783 838.41 530.608 838.41 520V508.92L828.318 514.72C823.783 517.475 818.744 519.288 813.505 520.054C808.26 520.821 802.919 520.524 797.791 519.182C792.667 517.84 787.857 515.479 783.65 512.239C779.444 508.999 775.92 504.945 773.293 500.315C770.665 495.685 768.985 490.573 768.344 485.279C767.709 479.985 768.132 474.617 769.584 469.489C771.041 464.362 773.494 459.578 776.816 455.421C780.132 451.263 784.238 447.815 788.901 445.28L798.04 440L788.901 434.72C779.756 429.456 773.059 420.752 770.289 410.52C767.518 400.29 768.895 389.369 774.119 380.16ZM495.973 540.16C501.203 530.954 509.849 524.215 520.013 521.425C530.176 518.635 541.024 520.021 550.172 525.28L600 553.92L649.828 525.28C654.364 522.526 659.401 520.712 664.643 519.945C669.885 519.179 675.227 519.476 680.353 520.818C685.48 522.16 690.289 524.52 694.496 527.76C698.703 531 702.225 535.055 704.852 539.685C707.481 544.315 709.163 549.427 709.8 554.721C710.436 560.015 710.016 565.383 708.561 570.511C707.107 575.639 704.649 580.422 701.332 584.58C698.015 588.737 693.905 592.184 689.245 594.72L639.735 623.2V680C639.735 690.609 635.549 700.783 628.097 708.284C620.645 715.785 610.539 720 600 720C589.462 720 579.355 715.785 571.903 708.284C564.451 700.783 560.265 690.609 560.265 680V623.2L510.755 594.72C501.61 589.456 494.916 580.752 492.144 570.52C489.372 560.29 490.75 549.369 495.973 540.16ZM321.854 640C332.393 640 342.499 644.214 349.951 651.716C357.403 659.217 361.589 669.391 361.589 680V736.8L411.099 765.28C415.759 767.813 419.869 771.264 423.187 775.419C426.504 779.579 428.961 784.363 430.416 789.488C431.87 794.619 432.291 799.984 431.654 805.28C431.017 810.571 429.335 815.685 426.707 820.315C424.079 824.944 420.558 828.997 416.35 832.24C412.143 835.477 407.334 837.84 402.208 839.184C397.081 840.523 391.74 840.821 386.497 840.053C381.255 839.291 376.218 837.472 371.682 834.72L302.146 794.72C296.064 791.221 291.009 786.171 287.492 780.075C283.975 773.973 282.122 767.051 282.119 760V680C282.119 669.391 286.306 659.217 293.757 651.716C301.209 644.214 311.316 640 321.854 640ZM878.146 640C888.683 640 898.792 644.214 906.241 651.716C913.695 659.217 917.881 669.391 917.881 680V760C917.881 767.051 916.026 773.973 912.508 780.075C908.991 786.171 903.936 791.221 897.854 794.72L828.318 834.72C823.783 837.472 818.744 839.291 813.505 840.053C808.26 840.821 802.919 840.523 797.791 839.184C792.667 837.84 787.857 835.477 783.65 832.24C779.444 828.997 775.92 824.944 773.293 820.315C770.665 815.685 768.985 810.571 768.344 805.28C767.709 799.984 768.132 794.619 769.584 789.488C771.041 784.363 773.494 779.579 776.816 775.419C780.132 771.264 784.238 767.813 788.901 765.28L838.41 736.8V680C838.41 669.391 842.596 659.217 850.05 651.716C857.499 644.214 867.608 640 878.146 640ZM495.973 860.16C501.203 850.955 509.849 844.213 520.013 841.424C530.176 838.635 541.024 840.021 550.172 845.28L560.265 851.083V840C560.265 829.392 564.451 819.216 571.903 811.717C579.355 804.213 589.462 800 600 800C610.539 800 620.645 804.213 628.097 811.717C635.549 819.216 639.735 829.392 639.735 840V851.083L649.828 845.28C654.364 842.528 659.401 840.709 664.643 839.947C669.885 839.179 675.227 839.477 680.353 840.816C685.48 842.16 690.289 844.523 694.496 847.76C698.703 851.003 702.225 855.056 704.852 859.685C707.481 864.315 709.163 869.429 709.8 874.72C710.436 880.016 710.016 885.381 708.561 890.512C707.107 895.637 704.649 900.421 701.332 904.581C698.015 908.736 693.905 912.187 689.245 914.72L620.305 954.4C614.168 958.096 607.151 960.048 600 960.048C592.849 960.048 585.831 958.096 579.695 954.4L510.755 914.72C501.61 909.456 494.916 900.752 492.144 890.523C489.372 880.288 490.75 869.371 495.973 860.16Z" fill="black"/>
</svg>
